{
  "accessors": [
    {
      "bufferView": 1,
      "componentType": 5126,
      "count": 65532,
      "max": [
        23.847208023071289,
        23.989667892456055,
        8.8259201049804688
      ],
      "min": [
        0.23133870959281921,
        0.365059494972229,
        0.00064723956165835261
      ],
      "type": "VEC3"
    },
    {
      "bufferView": 1,
      "byteOffset": 786384,
      "componentType": 5126,
      "count": 65532,
      "max": [
        1,
        0.99999988079071045,
        0.99999958276748657
      ],
      "min": [
        -1,
        -0.99999988079071045,
        -0.99999964237213135
      ],
      "type": "VEC3"
    },
    {
      "bufferView": 2,
      "componentType": 5126,
      "count": 65532,
      "max": [
        0.49803921580314636,
        0.49803921580314636,
        0.49803921580314636,
        0.12549020349979401
      ],
      "min": [
        0.49803921580314636,
        0.49803921580314636,
        0.49803921580314636,
        0.12549020349979401
      ],
      "type": "VEC4"
    },
    {
      "bufferView": 0,
      "componentType": 5125,
      "count": 306924,
      "max": [
        65531
      ],
      "min": [
        0
      ],
      "type": "SCALAR"
    },
    {
      "bufferView": 1,
      "byteOffset": 1572768,
      "componentType": 5126,
      "count": 65532,
      "max": [
        23.68687629699707,
        24.253818511962891,
        8.8269691467285156
      ],
      "min": [
        0.22518794238567352,
        0.47790876030921936,
        2.6566817723505665e-07
      ],
      "type": "VEC3"
    },
    {
      "bufferView": 1,
      "byteOffset": 2359152,
      "componentType": 5126,
      "count": 65532,
      "max": [
        0.99999511241912842,
        0.99998724460601807,
        0.99999988079071045
      ],
      "min": [
        -1,
        -0.99998044967651367,
        -0.99999994039535522
      ],
      "type": "VEC3"
    },
    {
      "bufferView": 2,
      "byteOffset": 1048512,
      "componentType": 5126,
      "count": 65532,
      "max": [
        0.49803921580314636,
        0.49803921580314636,
        0.49803921580314636,
        0.12549020349979401
      ],
      "min": [
        0.49803921580314636,
        0.49803921580314636,
        0.49803921580314636,
        0.12549020349979401
      ],
      "type": "VEC4"
    },
    {
      "bufferView": 0,
      "byteOffset": 1227696,
      "componentType": 5125,
      "count": 313692,
      "max": [
        65531
      ],
      "min": [
        0
      ],
      "type": "SCALAR"
    },
    {
      "bufferView": 1,
      "byteOffset": 3145536,
      "componentType": 5126,
      "count": 65532,
      "max": [
        23.800153732299805,
        24.369089126586914,
        8.8226089477539062
      ],
      "min": [
        0.23519431054592133,
        0.44266137480735779,
        0.0013863466447219253
      ],
      "type": "VEC3"
    },
    {
      "bufferView": 1,
      "byteOffset": 3931920,
      "componentType": 5126,
      "count": 65532,
      "max": [
        0.99996882677078247,
        0.99999189376831055,
        0.99999940395355225
      ],
      "min": [
        -0.99985289573669434,
        -0.99999725818634033,
        -0.99999982118606567
      ],
      "type": "VEC3"
    },
    {
      "bufferView": 2,
      "byteOffset": 2097024,
      "componentType": 5126,
      "count": 65532,
      "max": [
        0.49803921580314636,
        0.49803921580314636,
        0.49803921580314636,
        0.12549020349979401
      ],
      "min": [
        0.49803921580314636,
        0.49803921580314636,
        0.49803921580314636,
        0.12549020349979401
      ],
      "type": "VEC4"
    },
    {
      "bufferView": 0,
      "byteOffset": 2482464,
      "componentType": 5125,
      "count": 311166,
      "max": [
        65531
      ],
      "min": [
        0
      ],
      "type": "SCALAR"
    },
    {
      "bufferView": 1,
      "byteOffset": 4718304,
      "componentType": 5126,
      "count": 65533,
      "max": [
        23.835182189941406,
        24.360752105712891,
        8.8254413604736328
      ],
      "min": [
        0.24971754848957062,
        0.3795454204082489,
        0.0005772649310529232
      ],
      "type": "VEC3"
    },
    {
      "bufferView": 1,
      "byteOffset": 5504700,
      "componentType": 5126,
      "count": 65533,
      "max": [
        1,
        0.99998414516448975,
        0.99999946355819702
      ],
      "min": [
        -0.99999994039535522,
        -0.99999892711639404,
        -0.99999982118606567
      ],
      "type": "VEC3"
    },
    {
      "bufferView": 2,
      "byteOffset": 3145536,
      "componentType": 5126,
      "count": 65533,
      "max": [
        0.49803921580314636,
        0.49803921580314636,
        0.49803921580314636,
        0.12549020349979401
      ],
      "min": [
        0.49803921580314636,
        0.49803921580314636,
        0.49803921580314636,
        0.12549020349979401
      ],
      "type": "VEC4"
    },
    {
      "bufferView": 0,
      "byteOffset": 3727128,
      "componentType": 5125,
      "count": 248280,
      "max": [
        65532
      ],
      "min": [
        0
      ],
      "type": "SCALAR"
    },
    {
      "bufferView": 1,
      "byteOffset": 6291096,
      "componentType": 5126,
      "count": 65532,
      "max": [
        23.827383041381836,
        24.369089126586914,
        8.8246517181396484
      ],
      "min": [
        0.24242736399173737,
        0.38872259855270386,
        0.0013192876940593123
      ],
      "type": "VEC3"
    },
    {
      "bufferView": 1,
      "byteOffset": 7077480,
      "componentType": 5126,
      "count": 65532,
      "max": [
        0.99999982118606567,
        0.99999809265136719,
        0.99999749660491943
      ],
      "min": [
        -0.9999956488609314,
        -0.99999958276748657,
        -0.99999964237213135
      ],
      "type": "VEC3"
    },
    {
      "bufferView": 2,
      "byteOffset": 4194064,
      "componentType": 5126,
      "count": 65532,
      "max": [
        0.49803921580314636,
        0.49803921580314636,
        0.49803921580314636,
        0.12549020349979401
      ],
      "min": [
        0.49803921580314636,
        0.49803921580314636,
        0.49803921580314636,
        0.12549020349979401
      ],
      "type": "VEC4"
    },
    {
      "bufferView": 0,
      "byteOffset": 4720248,
      "componentType": 5125,
      "count": 294183,
      "max": [
        65531
      ],
      "min": [
        0
      ],
      "type": "SCALAR"
    },
    {
      "bufferView": 1,
      "byteOffset": 7863864,
      "componentType": 5126,
      "count": 5736,
      "max": [
        22.049858093261719,
        7.3330240249633789,
        4.2775382995605469
      ],
      "min": [
        13.067315101623535,
        0.86399155855178833,
        2.3356938362121582
      ],
      "type": "VEC3"
    },
    {
      "bufferView": 1,
      "byteOffset": 7932696,
      "componentType": 5126,
      "count": 5736,
      "max": [
        0.91826492547988892,
        0.99934864044189453,
        0.95984733104705811
      ],
      "min": [
        -0.96372836828231812,
        -0.99533110857009888,
        -0.99985635280609131
      ],
      "type": "VEC3"
    },
    {
      "bufferView": 2,
      "byteOffset": 5242576,
      "componentType": 5126,
      "count": 5736,
      "max": [
        0.49803921580314636,
        0.49803921580314636,
        0.49803921580314636,
        0.12549020349979401
      ],
      "min": [
        0.49803921580314636,
        0.49803921580314636,
        0.49803921580314636,
        0.12549020349979401
      ],
      "type": "VEC4"
    },
    {
      "bufferView": 0,
      "byteOffset": 5896980,
      "componentType": 5125,
      "count": 21093,
      "max": [
        5735
      ],
      "min": [
        0
      ],
      "type": "SCALAR"
    }
  ],
  "asset": {
    "extras": {
      "author": "Mihail Burmistrov (https://sketchfab.com/mishkin79)",
      "license": "CC-BY-NC-4.0 (http://creativecommons.org/licenses/by-nc/4.0/)",
      "source": "https://sketchfab.com/3d-models/stone-water-fire-6c570ab27c8342a4ba752f3ee7842007",
      "title": "Stone, water, fire"
    },
    "generator": "Sketchfab-6.33.0",
    "version": "2.0"
  },
  "bufferViews": [
    {
      "buffer": 0,
      "byteLength": 5981352,
      "byteOffset": 0,
      "name": "floatBufferViews",
      "target": 34963
    },
    {
      "buffer": 0,
      "byteLength": 8001528,
      "byteOffset": 5981352,
      "byteStride": 12,
      "name": "floatBufferViews",
      "target": 34962
    },
    {
      "buffer": 0,
      "byteLength": 5334352,
      "byteOffset": 13982880,
      "byteStride": 16,
      "name": "floatBufferViews",
      "target": 34962
    }
  ],
  "buffers": [
    {
      "byteLength": 19317232,
      "uri": "scene.bin"
    }
  ],
  "materials": [
    {
      "doubleSided": false,
      "emissiveFactor": [
        0.28333351829999998,
        0.28333351829999998,
        0.28333351829999998
      ],
      "name": "Scene_-_Root",
      "pbrMetallicRoughness": {
        "baseColorFactor": [
          1,
          0.99747204609999995,
          0.98996368810000002,
          1
        ],
        "metallicFactor": 0,
        "roughnessFactor": 0.59999999999999998
      }
    }
  ],
  "meshes": [
    {
      "primitives": [
        {
          "attributes": {
            "COLOR_0": 2,
            "NORMAL": 1,
            "POSITION": 0
          },
          "indices": 3,
          "material": 0,
          "mode": 4
        }
      ]
    },
    {
      "primitives": [
        {
          "attributes": {
            "COLOR_0": 6,
            "NORMAL": 5,
            "POSITION": 4
          },
          "indices": 7,
          "material": 0,
          "mode": 4
        }
      ]
    },
    {
      "primitives": [
        {
          "attributes": {
            "COLOR_0": 10,
            "NORMAL": 9,
            "POSITION": 8
          },
          "indices": 11,
          "material": 0,
          "mode": 4
        }
      ]
    },
    {
      "primitives": [
        {
          "attributes": {
            "COLOR_0": 14,
            "NORMAL": 13,
            "POSITION": 12
          },
          "indices": 15,
          "material": 0,
          "mode": 4
        }
      ]
    },
    {
      "primitives": [
        {
          "attributes": {
            "COLOR_0": 18,
            "NORMAL": 17,
            "POSITION": 16
          },
          "indices": 19,
          "material": 0,
          "mode": 4
        }
      ]
    },
    {
      "primitives": [
        {
          "attributes": {
            "COLOR_0": 22,
            "NORMAL": 21,
            "POSITION": 20
          },
          "indices": 23,
          "material": 0,
          "mode": 4
        }
      ]
    }
  ],
  "nodes": [
    {
      "children": [
        1
      ],
      "name": "RootNode (gltf orientation matrix)",
      "rotation": [
        -0.70710678118654746,
        -0,
        -0,
        0.70710678118654757
      ]
    },
    {
      "children": [
        2
      ],
      "matrix": [
        -1,
        0,
        0,
        0,
        0,
        1,
        0,
        0,
        0,
        0,
        -1,
        0,
        23.999759674072266,
        0,
        8.9910507202148438,
        1
      ],
      "name": "RootNode (model correction matrix)"
    },
    {
      "children": [
        3,
        4,
        5,
        6,
        7,
        8
      ],
      "name": "Merged_iwf11114.stl.cleaner.materialmerger.gles"
    },
    {
      "mesh": 0,
      "name": ""
    },
    {
      "mesh": 1,
      "name": ""
    },
    {
      "mesh": 2,
      "name": ""
    },
    {
      "mesh": 3,
      "name": ""
    },
    {
      "mesh": 4,
      "name": ""
    },
    {
      "mesh": 5,
      "name": ""
    }
  ],
  "scene": 0,
  "scenes": [
    {
      "name": "OSG_Scene",
      "nodes": [
        0
      ]
    }
  ]
}

